<mxfile host="app.diagrams.net" modified="2024-07-10T10:17:57.598Z" agent="Mozilla/5.0 (Windows NT 10.0; Win64; x64) AppleWebKit/537.36 (KHTML, like Gecko) Chrome/126.0.0.0 Safari/537.36" etag="3BhVrfpua8P8Wn9RWCCz" version="24.6.4" type="github">
  <diagram name="Page-1" id="c7488fd3-1785-93aa-aadb-54a6760d102a">
    <mxGraphModel dx="954" dy="661" grid="1" gridSize="10" guides="1" tooltips="1" connect="1" arrows="1" fold="1" page="1" pageScale="1" pageWidth="1100" pageHeight="850" background="none" math="0" shadow="0">
      <root>
        <mxCell id="0" />
        <mxCell id="1" parent="0" />
        <mxCell id="2b4e8129b02d487f-1" value="Domestic Sales Department" style="swimlane;html=1;childLayout=stackLayout;horizontal=1;startSize=40;horizontalStack=0;rounded=0;shadow=0;labelBackgroundColor=none;strokeWidth=1;fontFamily=Helvetica;fontSize=15;align=center;fillColor=#CCCCCC;strokeColor=#666666;fontColor=#333333;" parent="1" vertex="1">
          <mxGeometry x="180" y="70" width="740" height="740" as="geometry" />
        </mxCell>
        <mxCell id="2b4e8129b02d487f-2" value="Price Operations" style="swimlane;html=1;startSize=70;horizontal=0;fillColor=#fff2cc;strokeColor=#d6b656;swimlaneFillColor=none;glass=0;rounded=0;shadow=0;" parent="2b4e8129b02d487f-1" vertex="1">
          <mxGeometry y="40" width="740" height="250" as="geometry" />
        </mxCell>
        <mxCell id="qrnM_26eQoAFYajClJYY-17" style="edgeStyle=orthogonalEdgeStyle;rounded=0;orthogonalLoop=1;jettySize=auto;html=1;exitX=0.55;exitY=0.95;exitDx=0;exitDy=0;exitPerimeter=0;" edge="1" parent="2b4e8129b02d487f-2" source="qrnM_26eQoAFYajClJYY-13">
          <mxGeometry relative="1" as="geometry">
            <mxPoint x="200" y="140" as="targetPoint" />
            <Array as="points">
              <mxPoint x="142" y="90" />
              <mxPoint x="201" y="90" />
            </Array>
          </mxGeometry>
        </mxCell>
        <mxCell id="qrnM_26eQoAFYajClJYY-13" value="Commodities&amp;nbsp;&lt;div&gt;Market&lt;/div&gt;" style="ellipse;shape=cloud;whiteSpace=wrap;html=1;align=center;" vertex="1" parent="2b4e8129b02d487f-2">
          <mxGeometry x="70" width="130" height="80" as="geometry" />
        </mxCell>
        <mxCell id="qrnM_26eQoAFYajClJYY-14" value="" style="shape=actor;whiteSpace=wrap;html=1;" vertex="1" parent="2b4e8129b02d487f-2">
          <mxGeometry x="220" y="129" width="40" height="50" as="geometry" />
        </mxCell>
        <mxCell id="qrnM_26eQoAFYajClJYY-18" style="edgeStyle=orthogonalEdgeStyle;rounded=0;orthogonalLoop=1;jettySize=auto;html=1;exitX=0.55;exitY=0.95;exitDx=0;exitDy=0;exitPerimeter=0;entryX=0.5;entryY=0;entryDx=0;entryDy=0;" edge="1" parent="2b4e8129b02d487f-2" source="qrnM_26eQoAFYajClJYY-15" target="qrnM_26eQoAFYajClJYY-14">
          <mxGeometry relative="1" as="geometry">
            <Array as="points">
              <mxPoint x="260" y="93" />
              <mxPoint x="240" y="93" />
            </Array>
          </mxGeometry>
        </mxCell>
        <mxCell id="qrnM_26eQoAFYajClJYY-15" value="&lt;div&gt;NPC&lt;/div&gt;&lt;div&gt;Emails&lt;/div&gt;" style="ellipse;shape=cloud;whiteSpace=wrap;html=1;align=center;" vertex="1" parent="2b4e8129b02d487f-2">
          <mxGeometry x="210" y="15" width="90" height="50" as="geometry" />
        </mxCell>
        <mxCell id="2b4e8129b02d487f-3" value="Proforma Issuance" style="swimlane;html=1;startSize=70;horizontal=0;fillColor=#dae8fc;strokeColor=#6c8ebf;" parent="2b4e8129b02d487f-1" vertex="1">
          <mxGeometry y="290" width="740" height="150" as="geometry" />
        </mxCell>
        <mxCell id="qrnM_26eQoAFYajClJYY-12" value="Checkout" style="swimlane;html=1;startSize=70;horizontal=0;fillColor=#d5e8d4;strokeColor=#82b366;" vertex="1" parent="2b4e8129b02d487f-1">
          <mxGeometry y="440" width="740" height="150" as="geometry" />
        </mxCell>
        <mxCell id="2b4e8129b02d487f-4" value="Logistics" style="swimlane;html=1;startSize=70;horizontal=0;fillColor=#e1d5e7;strokeColor=#9673a6;" parent="2b4e8129b02d487f-1" vertex="1">
          <mxGeometry y="590" width="740" height="150" as="geometry" />
        </mxCell>
        <mxCell id="qrnM_26eQoAFYajClJYY-1" value="" style="endArrow=classic;html=1;rounded=0;strokeWidth=2;startArrow=halfCircle;startFill=0;fillColor=#ffe6cc;strokeColor=#d79b00;" edge="1" parent="1">
          <mxGeometry width="50" height="50" relative="1" as="geometry">
            <mxPoint x="120" y="120" as="sourcePoint" />
            <mxPoint x="120" y="510" as="targetPoint" />
          </mxGeometry>
        </mxCell>
        <mxCell id="qrnM_26eQoAFYajClJYY-2" value="Process Direction" style="edgeLabel;html=1;align=center;verticalAlign=bottom;resizable=0;points=[];horizontal=0;fontSize=18;fontStyle=2" vertex="1" connectable="0" parent="qrnM_26eQoAFYajClJYY-1">
          <mxGeometry x="-0.0103" y="-3" relative="1" as="geometry">
            <mxPoint as="offset" />
          </mxGeometry>
        </mxCell>
      </root>
    </mxGraphModel>
  </diagram>
</mxfile>
